PathFileType	4	(X/Y/Z)	C:\Git\1_current_projects\powerlifing_model\simulations\Athlete_03\25_03_31\Walking_01\markers_experimental.trc
DataRate	CameraRate	NumFrames	NumMarkers	Units	OrigDataRate	OrigDataStartFrame	OrigNumFrames
200.000000	200.000000	4	53	mm	200.000000	119	239
Frame#	Time	GLAB			RFHD			LFHD			C7			T6			SPINMOL			SPINM2			SPINM3			T12			BELTOL			BELT2			BELT3			SACROL			SACR2			SACR3			LTHOL			LTH2			LTH3			LSHAOL			LSHA2			LSHA3			LHEE			LTOE			LM5			RTHOL			RTH2			RTH3			RSHAOL			RSHA2			RSHA3			RHEE			RTOE			RM5			STRN			XIPH			LACR			LUAOL			LUA2			LUA3			LLAOL			LLA2			LLA3			LWRR			LWRU			RACR			RUAOL			RUA2			RUA3			RLAOL			RLA2			RLA3			RWRR			RWRU			
		X1	Y1	Z1	X2	Y2	Z2	X3	Y3	Z3	X4	Y4	Z4	X5	Y5	Z5	X6	Y6	Z6	X7	Y7	Z7	X8	Y8	Z8	X9	Y9	Z9	X10	Y10	Z10	X11	Y11	Z11	X12	Y12	Z12	X13	Y13	Z13	X14	Y14	Z14	X15	Y15	Z15	X16	Y16	Z16	X17	Y17	Z17	X18	Y18	Z18	X19	Y19	Z19	X20	Y20	Z20	X21	Y21	Z21	X22	Y22	Z22	X23	Y23	Z23	X24	Y24	Z24	X25	Y25	Z25	X26	Y26	Z26	X27	Y27	Z27	X28	Y28	Z28	X29	Y29	Z29	X30	Y30	Z30	X31	Y31	Z31	X32	Y32	Z32	X33	Y33	Z33	X34	Y34	Z34	X35	Y35	Z35	X36	Y36	Z36	X37	Y37	Z37	X38	Y38	Z38	X39	Y39	Z39	X40	Y40	Z40	X41	Y41	Z41	X42	Y42	Z42	X43	Y43	Z43	X44	Y44	Z44	X45	Y45	Z45	X46	Y46	Z46	X47	Y47	Z47	X48	Y48	Z48	X49	Y49	Z49	X50	Y50	Z50	X51	Y51	Z51	X52	Y52	Z52	X53	Y53	Z53	

120	0.595	221.7375183105469	1570.02685546875	-290.4173583984376	285.1152954101563	1597.233520507813	-239.550521850586	147.3132476806641	1587.08935546875	-246.1068878173829	221.9096069335938	1407.324951171875	-67.88220977783205	220.3638305664063	1241.455322265625	-4.980572223663331	199.400375366211	1200.544677734375	3.632812023162843	248.8771057128907	1193.9375	11.1391658782959	216.2066040039063	1136.542846679688	1.401074290275574	218.3743743896485	1068.544799804688	-22.53141403198243	199.1381225585938	1030.148071289063	14.74284172058106	250.0086669921876	1030.377685546875	18.80827522277832	222.5893554687501	968.7756958007815	21.09493827819825	194.4236297607422	924.0803222656252	0.3788381218910218	246.1238403320313	927.2274169921877	7.283953666687013	220.8850250244141	867.3951416015627	23.16590118408203	47.42376708984376	632.9067382812501	-181.5618286132813	80.41271209716798	564.7051391601564	-161.3502807617188	61.55406951904298	578.3022460937501	-205.6318511962891	49.90473937988283	302.7828369140626	-315.4296264648438	66.69439697265626	226.542465209961	-300.9170532226563	54.44301605224611	248.1751556396485	-344.4263916015626	136.2113189697266	49.00815582275392	-380.0895996093751	119.3843078613282	113.4942398071289	-588.7446289062501	29.84448051452637	69.23890686035158	-554.3085327148439	413.1165771484376	691.1567382812501	0.3987437486648561	428.1528625488282	621.6420898437501	-34.51906204223634	404.1494445800782	631.0180664062501	8.573510169982912	399.7713928222657	368.3249511718751	135.3741760253907	396.6687927246095	289.3418579101563	133.2253875732422	385.2815246582032	319.6212463378907	171.4703369140625	278.6144714355469	134.0530853271485	289.4662475585938	285.0623474121094	42.62734603881837	104.9557342529297	389.5535888671876	41.54552841186524	150.3931274414063	223.2625122070313	1298.95361328125	-234.7092742919922	229.3982086181641	1154.394165039063	-245.3692626953126	46.85990142822266	1362.356079101563	-142.5499267578125	-51.04090118408205	1208.284545898438	-105.5825500488282	-67.4300994873047	1149.392822265625	-80.02517700195314	-52.05672454833986	1146.57958984375	-128.6496124267578	-97.23040008544925	948.9251098632815	-71.47015380859376	-75.31717681884767	890.0720214843752	-23.24514961242676	-100.4196090698242	887.690368652344	-66.34981536865236	-109.7888488769532	783.8682861328127	-66.90635681152345	-53.27822875976564	773.1052246093752	-120.3595657348633	389.6355895996095	1361.734619140625	-152.6839904785157	493.7487792968751	1222.819702148438	-164.9469299316407	502.2618713378907	1170.48828125	-204.8462371826172	519.1080322265626	1162.788452148438	-156.6505432128907	542.7507324218751	977.9482421875002	-293.4515686035157	545.4741210937501	975.6685791015627	-373.1793212890626	531.8657226562501	939.6385498046877	-341.4880676269532	519.2347412109376	903.104187011719	-424.0579223632814	444.5025329589845	927.7219848632815	-446.1092834472657	
121	0.6	220.2127075195313	1569.634155273438	-297.5094299316407	283.5370178222657	1596.884765625	-246.5869598388672	145.7371368408203	1586.6533203125	-253.2606811523438	220.2017364501954	1406.827026367188	-75.12179565429689	218.9272003173829	1240.933227539063	-12.35259437561036	198.0455627441407	1200.002807617188	-3.745963573455811	247.5133972167969	1193.428344726563	3.663382053375245	214.9265289306641	1136.021728515625	-6.04381847381592	217.2111358642579	1068.04296875	-29.99199295043946	197.7627410888672	1029.627685546875	6.964035034179689	248.5785827636719	1029.776489257813	10.95394515991211	221.1833648681641	968.2457275390627	13.32827663421631	193.5833129882813	923.5068359375002	-7.061559677124025	245.2915496826172	926.548767089844	-0.2030735760927201	219.9729003906251	866.700378417969	15.48782730102539	46.07043075561524	633.5344848632814	-190.6335906982422	78.10454559326173	565.0051269531251	-169.9838409423828	60.04785156250001	578.8434448242189	-214.5933685302735	49.43489456176759	302.7986450195313	-322.0567932128907	66.42005157470705	226.8303833007813	-306.6671752929688	54.11749649047853	247.892562866211	-350.3731689453126	136.3311614990235	49.53071594238283	-382.7866821289063	119.5191421508789	108.8565521240235	-592.7120361328126	30.07301902770997	65.59252929687501	-557.1676635742189	412.4178466796876	690.6571044921876	-7.130248069763185	427.6806030273439	621.1765747070314	-41.90894317626954	403.5386657714845	630.5451049804689	1.111080765724182	400.052459716797	369.3377685546876	129.4237976074219	396.8279113769532	290.3427124023438	128.36376953125	385.5592651367189	321.1592407226563	166.2104187011719	279.2261047363282	137.6993408203125	286.8735961914063	284.9868774414063	42.4138298034668	105.0853958129883	389.7342529296876	41.83922958374024	149.6443328857422	221.8902282714844	1298.5576171875	-242.0259552001954	228.1910705566407	1154.050903320313	-252.8945312500001	45.27214050292969	1361.54443359375	-150.0167694091797	-52.33253479003908	1207.196655273438	-113.3546142578125	-68.71282958984376	1148.26416015625	-87.9029006958008	-53.19517135620119	1145.510620117188	-136.487045288086	-98.26548767089847	947.909362792969	-79.24434661865236	-76.46257781982423	889.2637329101565	-30.70562171936036	-101.4444274902344	886.6929931640627	-73.8599090576172	-110.8342666625977	782.9016723632815	-74.0005340576172	-54.06775665283205	771.8365478515627	-127.1561889648438	388.1746520996095	1361.38134765625	-159.7105102539063	492.2500610351564	1222.333251953125	-171.5899963378907	500.8672485351564	1169.9111328125	-211.3330993652344	517.5674438476564	1162.2939453125	-163.0916290283203	541.5368652343751	977.132751464844	-299.3596191406251	544.4887084960939	974.6506347656252	-379.0517272949219	530.7778320312501	938.7102661132815	-347.3335876464844	518.3949584960939	902.011901855469	-429.8539428710939	443.6638183593751	926.533386230469	-452.0823669433595	
122	0.605	218.6754302978516	1569.360961914063	-304.6172180175782	281.9469909667969	1596.648559570313	-253.6347656250001	144.1488952636719	1586.339965820313	-260.4324645996094	218.4697723388672	1406.439453125	-82.38204193115236	217.4860229492188	1240.520874023438	-19.74527549743653	196.6919555664063	1199.57275390625	-11.14182281494141	246.1561737060547	1193.038208007813	-3.830066442489625	213.6513671875001	1135.614379882813	-13.50459003448487	216.065902709961	1067.663452148438	-37.45688247680665	196.4478607177735	1029.250610351563	-0.8659235239028933	247.2107391357422	1029.31005859375	3.031454801559449	219.8274993896485	967.8555297851565	5.512362003326417	192.788314819336	923.0202636718752	-14.50492954254151	244.5069427490235	925.929138183594	-7.715087413787844	219.0887756347657	866.0617675781252	7.741652488708498	44.69059371948243	634.3331298828126	-199.6940155029297	75.78872680664064	565.4833374023439	-178.6271209716797	58.49910354614259	579.5519409179689	-223.5481262207032	48.83448410034181	303.0192260742188	-328.6870727539063	65.93426513671876	227.3381500244141	-312.3327331542969	53.67796707153322	247.7917480468751	-356.2596740722657	136.401351928711	50.17790603637697	-385.0677185058595	119.6310653686524	104.0732955932617	-596.2995605468751	30.26498031616212	61.87800216674806	-559.5937500000001	411.681854248047	690.1185913085939	-14.84412860870362	427.1724548339845	620.7007446289064	-49.52956390380861	402.8926086425782	630.0320434570314	-6.576593875885012	400.3425598144532	370.3789062500001	123.1684799194336	396.9950561523439	291.3872985839844	123.2233581542969	385.8340759277345	322.7486877441407	160.6478729248047	279.8240051269532	141.5330352783203	283.9533996582032	284.8961181640626	42.1905860900879	105.2146148681641	389.9082946777345	42.18058395385743	148.835678100586	220.4819488525391	1298.28125	-249.3630676269532	226.9429779052735	1153.828735351563	-260.4489135742188	43.65642929077149	1360.831176757813	-157.4998168945313	-53.6405487060547	1206.195190429688	-121.1671142578125	-70.01014709472658	1147.216552734375	-95.82872772216798	-54.34263992309572	1144.53076171875	-144.3722534179688	-99.30546569824222	946.966735839844	-87.11843872070314	-77.61790466308595	888.5156860351565	-38.28271102905274	-102.4680099487305	885.7662353515627	-81.49329376220705	-111.8727340698242	782.0092773437502	-81.25283050537111	-54.83333206176759	770.6647949218752	-134.0955047607422	386.6903076171876	1361.136840820313	-166.779525756836	490.7334289550782	1221.94140625	-178.2262115478516	499.4590454101564	1169.406982421875	-217.7871398925782	516.0072631835939	1161.895385742188	-169.4957580566407	540.3090820312501	976.3386230468752	-305.1322937011719	543.5150146484376	973.6004638671877	-384.7840576171876	529.6903686523439	937.7698974609377	-353.0195617675782	517.5817260742189	900.8581542968752	-435.4686584472657	442.8495178222657	925.2519531250002	-457.9000549316407	
123	0.61	217.1280517578126	1569.209838867188	-311.7402343750001	280.3476562500001	1596.527221679688	-260.6939392089844	142.5511322021485	1586.152221679688	-267.6217956542969	216.7181243896485	1406.164916992188	-89.66021728515626	216.0437927246094	1240.219604492188	-27.15497207641602	195.3433532714844	1199.256225585938	-18.55151176452637	244.8089141845704	1192.769653320313	-11.33692932128906	212.3862304687501	1135.322509765625	-20.97697639465332	214.9463653564454	1067.409912109375	-44.92111968994141	195.2093200683594	1029.02734375	-8.734610557556154	245.9225006103516	1028.991455078125	-4.944537639617921	218.5381317138672	967.6160278320315	-2.340253591537476	192.0402832031251	922.6275634765627	-21.95072174072266	243.7714080810547	925.375427246094	-15.25094699859619	218.233139038086	865.4877929687502	-0.067995622754097	43.2906723022461	635.2876586914064	-208.7081146240235	73.47364044189455	566.1248168945314	-187.2481384277344	56.91890335083009	580.4144897460939	-232.4630126953126	48.09049224853517	303.4422302246094	-335.3343505859376	65.20867156982423	228.060775756836	-317.9376220703126	53.112361907959	247.8762512207032	-362.1073303222657	136.4184112548828	50.92941284179689	-386.9979553222657	119.7230606079102	99.24281311035159	-599.5294799804689	30.41560173034669	58.17697143554689	-561.6380615234376	410.908660888672	689.5396118164064	-22.74235343933106	426.6311645507814	620.2150268554689	-57.38562011718751	402.2130432128907	629.4757080078126	-14.49446105957032	400.6383056640626	371.4482421875001	116.5926284790039	397.1687622070314	292.4767150878907	117.7872314453125	386.0989990234376	324.3889770507813	154.7638854980469	280.3936767578126	145.5584716796875	280.6686706542969	284.7876892089844	41.96158599853516	105.3294448852539	390.0698547363282	42.58316802978516	147.9629821777344	219.0393218994141	1298.130249023438	-256.7168579101563	225.6553497314454	1153.731567382813	-268.0269165039063	42.01656341552735	1360.223266601563	-164.9953002929688	-54.96298980712892	1205.288818359375	-129.0176696777344	-71.31914520263673	1146.258911132813	-103.8003234863282	-55.49705505371095	1143.648681640625	-152.3029022216797	-100.3484649658203	946.1053466796877	-95.09049224853517	-78.78022766113283	887.8347167968752	-45.97581863403321	-103.4878997802735	884.9174804687502	-89.2494354248047	-112.9019546508789	781.1983032226565	-88.66490173339845	-55.57313919067384	769.5986938476565	-141.1797790527344	385.1844482421876	1361.006591796875	-173.8898468017578	489.1995849609376	1221.65087890625	-184.8575134277344	498.0369262695314	1168.981689453125	-224.2099609375001	514.4287109375001	1161.600952148438	-175.8644561767578	539.0675659179689	975.5721435546877	-310.7673339843751	542.5535278320314	972.524108886719	-390.3740234375001	528.6036376953126	936.823669433594	-358.5425720214844	516.7955932617189	899.6467895507815	-440.8974609375001	442.0615844726564	923.8818969726565	-463.5593566894532	
